<?xml version="1.0" encoding="UTF-8" standalone="no"?>
<!-- Created with Inkscape (http://www.inkscape.org/) -->

<svg
   width="16"
   height="16"
   viewBox="0 0 4.2333332 4.2333333"
   version="1.1"
   id="svg1"
   inkscape:version="1.4.3 (0d15f75042, 2025-12-25)"
   sodipodi:docname="favicon.svg"
   xmlns:inkscape="http://www.inkscape.org/namespaces/inkscape"
   xmlns:sodipodi="http://sodipodi.sourceforge.net/DTD/sodipodi-0.dtd"
   xmlns="http://www.w3.org/2000/svg"
   xmlns:svg="http://www.w3.org/2000/svg">
  <sodipodi:namedview
     id="namedview1"
     pagecolor="#ffffff"
     bordercolor="#000000"
     borderopacity="0.25"
     inkscape:showpageshadow="2"
     inkscape:pageopacity="0.0"
     inkscape:pagecheckerboard="0"
     inkscape:deskcolor="#d1d1d1"
     inkscape:document-units="mm"
     showgrid="true"
     inkscape:zoom="48.633445"
     inkscape:cx="8.3995694"
     inkscape:cy="8.3995694"
     inkscape:window-width="1316"
     inkscape:window-height="994"
     inkscape:window-x="44"
     inkscape:window-y="42"
     inkscape:window-maximized="1"
     inkscape:current-layer="layer1">
    <inkscape:grid
       id="grid1"
       units="px"
       originx="0"
       originy="0"
       spacingx="0.26458333"
       spacingy="0.26458333"
       empcolor="#0099e5"
       empopacity="0.30196078"
       color="#0099e5"
       opacity="0.14901961"
       empspacing="5"
       enabled="true"
       visible="true" />
  </sodipodi:namedview>
  <defs
     id="defs1" />
  <g
     inkscape:label="Layer 1"
     inkscape:groupmode="layer"
     id="layer1">
    <circle
       style="fill:#000000;stroke:none;stroke-width:0.3;stroke-linecap:round"
       id="path1"
       cx="2.1166666"
       cy="2.1166666"
       r="2.1166666" />
    <circle
       style="fill:#ffffff;stroke:none;stroke-width:0.2625;stroke-linecap:round"
       id="circle1"
       cx="2.1166668"
       cy="2.1166668"
       r="1.8520833" />
    <path
       id="rect6"
       style="fill:#1a1a1a;stroke:none;stroke-width:0.424264;stroke-linecap:round"
       d="m 1.4552083,2.7781248 c -0.07329,0 -0.1322919,0.059002 -0.1322917,0.1322917 l 10e-8,0.066146 c 1e-7,0.068042 0.1245434,0.4630208 0.5291667,0.4630208 0.4046244,0 0.5304735,-0.3949926 0.5291667,-0.4630208 C 2.3787252,2.8451221 2.3305876,2.7834024 2.2489583,2.7781244 2.175821,2.7733955 2.0963854,2.8399884 2.1166666,2.9104161 l 1e-7,5e-7 C 2.1165644,3.0569074 1.9985989,3.175 1.8520834,3.175 1.7055426,3.175 1.5875619,3.0569425 1.5875001,2.9104166 l -1e-7,-5e-7 C 1.5672187,2.8399886 1.528498,2.7781248 1.4552083,2.7781248 Z"
       sodipodi:nodetypes="ssssssscscss" />
    <rect
       style="fill:#1a1a1a;stroke:none;stroke-width:0.259808;stroke-linecap:round"
       id="rect5"
       width="0.79375005"
       height="0.26458332"
       x="1.5875001"
       y="1.5874999" />
    <path
       id="path2"
       style="fill:#000000;stroke:none;stroke-width:0.372737;stroke-linecap:round"
       d="m 1.0583334,1.0583333 c -0.438376,0 -0.79374997,0.355374 -0.79374998,0.79375 10e-9,0.438376 0.35537398,0.79375 0.79374998,0.79375 0.438376,0 0.79375,-0.355374 0.79375,-0.79375 0,-0.438376 -0.355374,-0.79375 -0.79375,-0.79375 z"
       sodipodi:nodetypes="sssss" />
    <path
       id="path4"
       style="fill:#ffffff;stroke:none;stroke-width:0.248492;stroke-linecap:round"
       d="m 1.0583334,1.3229166 c -0.29225069,0 -0.52916668,0.236916 -0.52916668,0.5291667 0,0.2922506 0.23691599,0.5291666 0.52916668,0.5291666 0.2922507,0 0.5291667,-0.236916 0.5291667,-0.5291666 0,-0.2922507 -0.236916,-0.5291667 -0.5291667,-0.5291667 z"
       sodipodi:nodetypes="sssss" />
    <path
       id="path3"
       style="fill:#000000;stroke:none;stroke-width:0.372737;stroke-linecap:round"
       d="m 2.9104166,1.0583332 c -0.4383759,0 -0.7937499,0.355374 -0.7937499,0.79375 0,0.438376 0.355374,0.79375 0.7937499,0.79375 0.438376,0 0.79375,-0.355374 0.79375,-0.79375 0,-0.438376 -0.355374,-0.79375 -0.79375,-0.79375 z"
       sodipodi:nodetypes="sssss" />
    <path
       id="path5"
       style="fill:#ffffff;stroke:none;stroke-width:0.248492;stroke-linecap:round"
       d="m 2.9104166,1.3229166 c -0.2922507,0 -0.5291667,0.236916 -0.5291667,0.5291667 0,0.2922506 0.236916,0.5291666 0.5291667,0.5291666 0.2922507,0 0.5291667,-0.236916 0.5291667,-0.5291666 0,-0.2922507 -0.236916,-0.5291667 -0.5291667,-0.5291667 z"
       sodipodi:nodetypes="sssss" />
    <rect
       style="fill:#1a1a1a;stroke:none;stroke-width:0.225998;stroke-linecap:round"
       id="rect9"
       width="0.60060096"
       height="0.26458332"
       x="3.4395831"
       y="1.8520832" />
    <circle
       style="fill:#000000;stroke:none;stroke-width:0.3;stroke-linecap:round"
       id="path9"
       cx="1.0583334"
       cy="1.8520832"
       r="0.26458332" />
    <circle
       style="fill:#000000;stroke:none;stroke-width:0.3;stroke-linecap:round"
       id="circle9"
       cx="2.9104164"
       cy="1.8520832"
       r="0.26458332" />
  </g>
</svg>
