<?xml version="1.0" encoding="UTF-8"?>
<svg width="37.91mm" height="60.53mm" version="1.1" viewBox="0 0 37.91 60.53" xml:space="preserve" xmlns="http://www.w3.org/2000/svg" xmlns:cc="http://creativecommons.org/ns#" xmlns:dc="http://purl.org/dc/elements/1.1/" xmlns:rdf="http://www.w3.org/1999/02/22-rdf-syntax-ns#"><metadata><rdf:RDF><cc:Work rdf:about=""><dc:format>image/svg+xml</dc:format><dc:type rdf:resource="http://purl.org/dc/dcmitype/StillImage"/></cc:Work></rdf:RDF></metadata><g transform="translate(-87.04 -119)"><g stroke="#000"><circle cx="105.4" cy="140.6" r="16.35" fill="#f9f9f9" fill-rule="evenodd" stroke-width="2.684"/><path d="m116.8 128.9-3.558 0.1757c-0.1226 5.696 3.612 6.691 3.542 9.555l3.675 0.1337 1.227 0.3199c-0.367-3.867-2.099-7.478-4.886-10.18z" fill="#a05a2c" fill-opacity=".6333" stroke-width=".5292"/><g><circle cx="105.4" cy="140.6" r="16.35" fill="none" stroke-width="2.684"/><g stroke-width="2.683"><path d="m104.9 179.4-1.316-22.65" fill="#f00"/><path d="m96.34 165 8.512 9.955 9.993-10.28" fill="none" stroke-linecap="round" stroke-linejoin="round"/><path d="m98.87 146.1c0.4383 2.162 4.787 2.059 4.571-0.91" fill="none" stroke-linecap="round"/></g></g></g><circle cx="96.25" cy="137.6" r="1.197"/><circle cx="109.8" cy="138.9" r="1.197"/><g fill="none" stroke="#000" stroke-width="1.246"><circle cx="97.47" cy="137" r="4.926" stroke-linecap="round" stroke-linejoin="round"/><circle cx="109.5" cy="138.9" r="4.926" stroke-linecap="round" stroke-linejoin="round"/><g><path d="m114.3 140.8 7.08-1.91"/><path d="m104.6 138-2.244-0.328"/><path d="m92.4 136.7h-2.207"/></g></g><path d="m94.24 127.3c0.1906 2.632-0.3142 3.366-1.087 4.919 2.233-1.069 3.211-2.252 3.676-4.911-0.3741 2.304-0.193 3.154 1.117 4.818-0.3057-3.132 0.4677-2.67 1.101-4.445-0.1009 2.236 0.4273 3.19-0.2752 5.234 1.829-1.485 2.264-3.037 3.223-5.19-0.0994 3.367 0.4453 1.962-0.3592 4.458 1.55-0.8734 2.102-1.987 3.29-4.013 0.1158 1.98 0.4827 2.679-0.3437 4.87 1.631-2.155 2.572-3.124 2.897-4.816 0.2633 2.03 0.7478 3.895 1.901 5.425-0.3428-1.547 0.3271-2.095 0.5421-4.057 0.2408 2.246 1.821 4.467 3.469 5.921-0.4267-1.679-1.32-3.754-0.4922-5.234 1.684 2.575 2.09 2.478 3.092 5.1 0.3503-1.669 0.4292-2.053 0.7834-2.866l2.138 1.112 0.4076-2.96 1.842 2.498c-0.2918-3.906-3.345-7.85-5.086-7.742 1.243-0.0584 2.818 0.147 4.737 0.3313-1.234-1.054-7.097-3.127-10.23-1.84-2.031-0.6343-10.88-1.544-14.37-0.6288-0.7244 0.0906 3.102 0.5063 2.396 0.7283-6.42 0.8609-8.767 4.582-9.609 6.764l2.614-2.215c-0.8988 2.315-1.633 2.448-0.5659 4.16 0.8421-2.362 2-3.933 3.193-5.418z" fill="#a05a2c" stroke="#000" stroke-linecap="round" stroke-linejoin="round" stroke-width=".928"/></g></svg>
