<?xml version="1.0" encoding="UTF-8"?>
<svg width="60.527mm" height="60.527mm" version="1.1" viewBox="0 0 37.914 60.527" xmlns="http://www.w3.org/2000/svg"><g transform="translate(-87.04 -118.98)"><g stroke="#000"><path d="m93.044 152.33c0.50655 3.2008 0.27987 6.4017 0.12803 9.6026 1.152-0.34367 2.1342-2.0463 2.9448-5.1214 0.92042 1.9632 2.0082 3.9264 1.2803 5.8896 1.2894-1.372 2.693-2.2876 3.3289-6.2737l1.4084 6.2737 1.0243-5.6335 3.3289 5.3774v-4.4812l1.5364 3.585 2.0485-4.8653 2.6887 3.9691 1.2803-5.3774c0.51499 1.1352 1.0915 1.9011 1.2804 4.9933 1.7646-4.1067 2.3699-6.1266 2.4326-7.1699z" fill="#804824" stroke-linecap="round" stroke-linejoin="round" stroke-width=".92839"/><g><circle cx="105.4" cy="140.62" r="16.35" fill="#f9f9f9" fill-rule="evenodd" stroke-width="2.6836"/><g stroke-width="2.6826"><path d="m104.88 179.43-1.3161-22.648" fill="#f00"/><path d="m96.342 165.03 8.5118 9.9552 9.993-10.28" fill="none" stroke-linecap="round" stroke-linejoin="round"/><path d="m98.865 146.09c0.4383 2.1619 4.7866 2.0592 4.5707-0.91003" fill="none" stroke-linecap="round"/></g></g></g><circle cx="96.251" cy="137.58" r="1.1971"/><circle cx="109.79" cy="138.85" r="1.1971"/><g fill="none" stroke="#000" stroke-width="1.2455"><circle cx="97.471" cy="136.99" r="4.9258" stroke-linecap="round" stroke-linejoin="round"/><circle cx="109.47" cy="138.9" r="4.9258" stroke-linecap="round" stroke-linejoin="round"/><g><path d="m114.29 140.8 7.0804-1.9104"/><path d="m104.59 137.96-2.2437-0.32798"/><path d="m92.399 136.71h-2.2072"/></g></g><path d="m94.242 127.3c-0.22769 2.5059-0.65818 4.0775 0.71678 5.854l1.8724-5.8469c-0.37405 2.3043-0.25983 4.4231 1.0504 6.0874-0.30566-3.1324 0.5345-4.6077 1.1675-6.3826-0.10094 2.2361-0.04042 4.4591 1.3952 6.5702-0.17508-2.1532 0.32667-4.3065 1.2857-6.4597-0.0994 3.3672 0.178 5.837 0.97718 7.0636 0.21368-2.7443 1.0994-4.9934 2.2874-7.0196-0.55238 2.8491-0.11866 6.354 1.0594 8.4778 0.29514-3.4247 0.70132-6.2648 1.4272-7.4219-4e-3 4.7028 0.68094 6.4343 1.3665 8.1643l1.0766-6.797c0.0403 2.38 0.21779 4.6672 1.3309 6.3218 0.3083-1.3452 0.81832-4.1546 1.646-5.6344 6.2948 9.3904 0.0183 16.443 3.025 23.208 1.3231-6.3053 1.3812-10.708 2.5869-12.245 0.84579-1.078-0.62446 13.278-0.66152 16.283-0.04 3.2401 0.30507 3.968 0.30507 3.968s3.9198-9.465 4.6363-16.136c4.1489-16.234-9.1966-21.955-16.33-23.068-8.4988-1.3268-16.509 1.498-18.197 11.093l3.5494-5.2218c-0.89878 2.3153-0.56351 4.2517 0.50318 5.9636z" fill="#a05a2c" stroke="#000" stroke-linecap="round" stroke-linejoin="round" stroke-width=".92839"/></g></svg>
