<?xml version="1.0" encoding="UTF-8" standalone="no"?>
<svg
   sodipodi:docname="scalable-jodie.svg"
   inkscape:version="1.4.3 (0d15f75042, 2025-12-25)"
   id="svg8"
   version="1.1"
   viewBox="0 0 37.914227 60.527241"
   height="60.527241mm"
   width="37.914227mm"
   xml:space="preserve"
   xmlns:inkscape="http://www.inkscape.org/namespaces/inkscape"
   xmlns:sodipodi="http://sodipodi.sourceforge.net/DTD/sodipodi-0.dtd"
   xmlns="http://www.w3.org/2000/svg"
   xmlns:svg="http://www.w3.org/2000/svg"
   xmlns:rdf="http://www.w3.org/1999/02/22-rdf-syntax-ns#"
   xmlns:cc="http://creativecommons.org/ns#"
   xmlns:dc="http://purl.org/dc/elements/1.1/"><defs
     id="defs2" /><sodipodi:namedview
     inkscape:window-maximized="0"
     inkscape:window-y="0"
     inkscape:window-x="174"
     inkscape:window-height="1024"
     inkscape:window-width="1613"
     inkscape:snap-global="false"
     showgrid="false"
     inkscape:document-rotation="0"
     inkscape:current-layer="layer1"
     inkscape:document-units="mm"
     inkscape:cy="101.39406"
     inkscape:cx="45.583133"
     inkscape:zoom="3.959798"
     inkscape:pageshadow="2"
     inkscape:pageopacity="0.0"
     borderopacity="1.0"
     bordercolor="#666666"
     pagecolor="#ffffff"
     id="base"
     inkscape:showpageshadow="2"
     inkscape:pagecheckerboard="0"
     inkscape:deskcolor="#d1d1d1" /><metadata
     id="metadata5"><rdf:RDF><cc:Work
         rdf:about=""><dc:format>image/svg+xml</dc:format><dc:type
           rdf:resource="http://purl.org/dc/dcmitype/StillImage" /></cc:Work></rdf:RDF></metadata><g
     id="layer1"
     inkscape:groupmode="layer"
     inkscape:label="Layer 1"
     transform="translate(-87.040105,-118.97567)"><circle
       r="16.349508"
       cy="140.61816"
       cx="105.3996"
       id="circle1"
       style="fill:#f9f9f9;fill-rule:evenodd;stroke:#000000;stroke-width:2.68361;stroke-miterlimit:4;stroke-dasharray:none;stroke-opacity:1" /><path
       id="path1"
       style="opacity:1;fill:#a05a2c;fill-opacity:0.633298;stroke:#000000;stroke-width:0.529167;stroke-dasharray:none;stroke-opacity:1"
       d="m 116.79023,128.88928 -3.55793,0.1757 c -0.12263,5.69626 3.6125,6.69093 3.54175,9.55507 l 3.67487,0.13374 1.22731,0.31988 c -0.36698,-3.86747 -2.09909,-7.47789 -4.886,-10.18439 z"
       sodipodi:nodetypes="cccccc" /><circle
       r="16.349508"
       cy="140.61816"
       cx="105.3996"
       id="path128"
       style="fill:none;fill-rule:evenodd;stroke:#000000;stroke-width:2.68361;stroke-miterlimit:4;stroke-dasharray:none;stroke-opacity:1" /><path
       sodipodi:nodetypes="cc"
       id="path953"
       d="m 104.87536,179.42509 -1.31607,-22.64783"
       style="fill:#ff0000;stroke:#000000;stroke-width:2.68265;stroke-linecap:butt;stroke-linejoin:miter;stroke-miterlimit:4;stroke-dasharray:none;stroke-opacity:1" /><path
       sodipodi:nodetypes="ccc"
       id="path955"
       d="m 96.341769,165.03091 8.511771,9.95519 9.99302,-10.27962"
       style="fill:none;stroke:#000000;stroke-width:2.68265;stroke-linecap:round;stroke-linejoin:round;stroke-miterlimit:4;stroke-dasharray:none;stroke-opacity:1" /><path
       sodipodi:nodetypes="cc"
       id="path957"
       d="m 98.865169,146.08583 c 0.438298,2.1619 4.786621,2.05916 4.570691,-0.91003"
       style="fill:none;stroke:#000000;stroke-width:2.68265;stroke-linecap:round;stroke-linejoin:miter;stroke-miterlimit:4;stroke-dasharray:none;stroke-opacity:1" /><circle
       r="1.1971164"
       cy="137.57564"
       cx="96.25135"
       id="path959"
       style="fill:#000000;stroke:none;stroke-width:4.70809;stroke-linecap:round;stroke-linejoin:round;stroke-miterlimit:4;stroke-dasharray:none;stroke-opacity:1" /><circle
       style="fill:#000000;stroke:none;stroke-width:4.70809;stroke-linecap:round;stroke-linejoin:round;stroke-miterlimit:4;stroke-dasharray:none;stroke-opacity:1"
       id="circle961"
       cx="109.78845"
       cy="138.8526"
       r="1.1971164" /><circle
       r="4.9258223"
       cy="136.99173"
       cx="97.471046"
       id="path963"
       style="fill:none;stroke:#000000;stroke-width:1.24552;stroke-linecap:round;stroke-linejoin:round;stroke-miterlimit:4;stroke-dasharray:none;stroke-opacity:1" /><circle
       style="fill:none;stroke:#000000;stroke-width:1.24552;stroke-linecap:round;stroke-linejoin:round;stroke-miterlimit:4;stroke-dasharray:none;stroke-opacity:1"
       id="circle965"
       cx="109.46786"
       cy="138.89761"
       r="4.9258223" /><path
       id="path967"
       d="m 114.28644,140.80213 7.08042,-1.91044"
       style="fill:none;stroke:#000000;stroke-width:1.24552;stroke-linecap:butt;stroke-linejoin:miter;stroke-miterlimit:4;stroke-dasharray:none;stroke-opacity:1" /><path
       sodipodi:nodetypes="cc"
       id="path969"
       d="m 104.59,137.95661 -2.24366,-0.32798"
       style="fill:none;stroke:#000000;stroke-width:1.24552;stroke-linecap:butt;stroke-linejoin:miter;stroke-miterlimit:4;stroke-dasharray:none;stroke-opacity:1" /><path
       id="path971"
       d="m 92.399412,136.70665 h -2.207151 v 0"
       style="fill:none;stroke:#000000;stroke-width:1.24552;stroke-linecap:butt;stroke-linejoin:miter;stroke-miterlimit:4;stroke-dasharray:none;stroke-opacity:1" /><path
       sodipodi:nodetypes="ccccccccccccccccccccccccccccc"
       id="path1217"
       d="m 94.241955,127.29862 c 0.190586,2.63166 -0.314172,3.36648 -1.087292,4.9186 2.233432,-1.06854 3.211003,-2.25174 3.67648,-4.91145 -0.374051,2.30429 -0.193011,3.15355 1.1172,4.81792 -0.305657,-3.13239 0.46768,-2.66997 1.100664,-4.44488 -0.100936,2.23613 0.427302,3.18959 -0.275242,5.23381 1.829445,-1.48506 2.264375,-3.03695 3.223445,-5.19019 -0.0994,3.36722 0.44527,1.96159 -0.35917,4.45775 1.55003,-0.87341 2.10164,-1.98658 3.28966,-4.01286 0.1158,1.98045 0.4827,2.67906 -0.34372,4.86964 1.63148,-2.15518 2.57224,-3.12436 2.89715,-4.81605 0.26327,2.03008 0.74776,3.89526 1.90101,5.42481 -0.34284,-1.54749 0.32706,-2.09511 0.54207,-4.05748 0.24075,2.2464 1.82141,4.46674 3.46902,5.92091 -0.42669,-1.67924 -1.31984,-3.75367 -0.4922,-5.23351 1.68445,2.57502 2.08964,2.47823 3.09177,5.10001 0.35031,-1.66946 0.42915,-2.05347 0.78339,-2.86618 l 2.1376,1.11156 0.40755,-2.95994 1.84188,2.49798 c -0.29183,-3.90619 -3.34472,-7.85043 -5.08633,-7.74158 1.24338,-0.0584 2.81805,0.14703 4.73667,0.33133 -1.23427,-1.05441 -7.09744,-3.12717 -10.22988,-1.83997 -2.03141,-0.6343 -10.881212,-1.54393 -14.369371,-0.62879 -0.72435,0.0906 3.102488,0.50634 2.395777,0.72827 -6.419999,0.86087 -8.766591,4.58232 -9.609382,6.76369 l 2.613912,-2.21497 c -0.898776,2.3153 -1.632591,2.44766 -0.565897,4.15951 0.842098,-2.36177 2.00026,-3.93337 3.193236,-5.41794 z"
       style="opacity:1;fill:#a05a2c;stroke:#000000;stroke-width:0.928;stroke-linecap:round;stroke-linejoin:round;stroke-dasharray:none;stroke-opacity:1" /></g></svg>
