<?xml version="1.0" encoding="UTF-8" standalone="no"?>
<svg
   sodipodi:docname="scalable-jodie.svg"
   inkscape:version="1.3.2 (091e20e, 2023-11-25, custom)"
   id="svg8"
   version="1.1"
   viewBox="0 0 37.914227 60.527241"
   height="60.527241mm"
   width="37.914227mm"
   xmlns:inkscape="http://www.inkscape.org/namespaces/inkscape"
   xmlns:sodipodi="http://sodipodi.sourceforge.net/DTD/sodipodi-0.dtd"
   xmlns="http://www.w3.org/2000/svg"
   xmlns:svg="http://www.w3.org/2000/svg"
   xmlns:rdf="http://www.w3.org/1999/02/22-rdf-syntax-ns#"
   xmlns:cc="http://creativecommons.org/ns#"
   xmlns:dc="http://purl.org/dc/elements/1.1/">
  <defs
     id="defs2" />
  <sodipodi:namedview
     inkscape:window-maximized="0"
     inkscape:window-y="0"
     inkscape:window-x="174"
     inkscape:window-height="1024"
     inkscape:window-width="1613"
     inkscape:snap-global="false"
     showgrid="false"
     inkscape:document-rotation="0"
     inkscape:current-layer="layer1"
     inkscape:document-units="mm"
     inkscape:cy="99.247487"
     inkscape:cx="-5.3033008"
     inkscape:zoom="1.979899"
     inkscape:pageshadow="2"
     inkscape:pageopacity="0.0"
     borderopacity="1.0"
     bordercolor="#666666"
     pagecolor="#ffffff"
     id="base"
     inkscape:showpageshadow="2"
     inkscape:pagecheckerboard="0"
     inkscape:deskcolor="#d1d1d1" />
  <metadata
     id="metadata5">
    <rdf:RDF>
      <cc:Work
         rdf:about="">
        <dc:format>image/svg+xml</dc:format>
        <dc:type
           rdf:resource="http://purl.org/dc/dcmitype/StillImage" />
      </cc:Work>
    </rdf:RDF>
  </metadata>
  <g
     id="layer1"
     inkscape:groupmode="layer"
     inkscape:label="Layer 1"
     transform="translate(-87.040105,-118.97567)">
    <path
       style="fill:#804824;fill-opacity:1;stroke:#000000;stroke-width:0.92839;stroke-linecap:round;stroke-linejoin:round;stroke-dasharray:none;stroke-opacity:1"
       d="m 93.043677,152.32956 c 0.506553,3.20085 0.27987,6.4017 0.128034,9.60256 1.152029,-0.34367 2.134185,-2.04631 2.944788,-5.12137 0.920419,1.96319 2.008219,3.92639 1.280343,5.88958 1.289439,-1.37199 2.692968,-2.28762 3.328898,-6.27368 l 1.40836,6.27367 1.02428,-5.63351 3.32889,5.37744 v -4.48118 l 1.53641,3.58495 2.04854,-4.8653 2.68872,3.96906 1.28034,-5.37744 c 0.51499,1.13523 1.09154,1.90109 1.28035,4.99334 1.7646,-4.10666 2.36991,-6.12661 2.43264,-7.16992 z"
       id="path1"
       sodipodi:nodetypes="cccccccccccccccc" />
    <circle
       r="16.349508"
       cy="140.61816"
       cx="105.3996"
       id="path128"
       style="fill:#f9f9f9;fill-rule:evenodd;stroke:#000000;stroke-width:2.68361;stroke-miterlimit:4;stroke-dasharray:none;stroke-opacity:1" />
    <path
       sodipodi:nodetypes="cc"
       id="path953"
       d="m 104.87536,179.42509 -1.31607,-22.64783"
       style="fill:#ff0000;stroke:#000000;stroke-width:2.68265;stroke-linecap:butt;stroke-linejoin:miter;stroke-miterlimit:4;stroke-dasharray:none;stroke-opacity:1" />
    <path
       sodipodi:nodetypes="ccc"
       id="path955"
       d="m 96.341769,165.03091 8.511771,9.95519 9.99302,-10.27962"
       style="fill:none;stroke:#000000;stroke-width:2.68265;stroke-linecap:round;stroke-linejoin:round;stroke-miterlimit:4;stroke-dasharray:none;stroke-opacity:1" />
    <path
       sodipodi:nodetypes="cc"
       id="path957"
       d="m 98.865169,146.08583 c 0.438298,2.1619 4.786621,2.05916 4.570691,-0.91003"
       style="fill:none;stroke:#000000;stroke-width:2.68265;stroke-linecap:round;stroke-linejoin:miter;stroke-miterlimit:4;stroke-dasharray:none;stroke-opacity:1" />
    <circle
       r="1.1971164"
       cy="137.57564"
       cx="96.25135"
       id="path959"
       style="fill:#000000;stroke:none;stroke-width:4.70809;stroke-linecap:round;stroke-linejoin:round;stroke-miterlimit:4;stroke-dasharray:none;stroke-opacity:1" />
    <circle
       style="fill:#000000;stroke:none;stroke-width:4.70809;stroke-linecap:round;stroke-linejoin:round;stroke-miterlimit:4;stroke-dasharray:none;stroke-opacity:1"
       id="circle961"
       cx="109.78845"
       cy="138.8526"
       r="1.1971164" />
    <circle
       r="4.9258223"
       cy="136.99173"
       cx="97.471046"
       id="path963"
       style="fill:none;stroke:#000000;stroke-width:1.24552;stroke-linecap:round;stroke-linejoin:round;stroke-miterlimit:4;stroke-dasharray:none;stroke-opacity:1" />
    <circle
       style="fill:none;stroke:#000000;stroke-width:1.24552;stroke-linecap:round;stroke-linejoin:round;stroke-miterlimit:4;stroke-dasharray:none;stroke-opacity:1"
       id="circle965"
       cx="109.46786"
       cy="138.89761"
       r="4.9258223" />
    <path
       id="path967"
       d="m 114.28644,140.80213 7.08042,-1.91044"
       style="fill:none;stroke:#000000;stroke-width:1.24552;stroke-linecap:butt;stroke-linejoin:miter;stroke-miterlimit:4;stroke-dasharray:none;stroke-opacity:1" />
    <path
       sodipodi:nodetypes="cc"
       id="path969"
       d="m 104.59,137.95661 -2.24366,-0.32798"
       style="fill:none;stroke:#000000;stroke-width:1.24552;stroke-linecap:butt;stroke-linejoin:miter;stroke-miterlimit:4;stroke-dasharray:none;stroke-opacity:1" />
    <path
       id="path971"
       d="m 92.399412,136.70665 h -2.207151 v 0"
       style="fill:none;stroke:#000000;stroke-width:1.24552;stroke-linecap:butt;stroke-linejoin:miter;stroke-miterlimit:4;stroke-dasharray:none;stroke-opacity:1" />
    <path
       sodipodi:nodetypes="ccccccccccccccccssccscccc"
       id="path1217"
       d="m 94.241955,127.29862 c -0.227692,2.50587 -0.658175,4.07746 0.716778,5.85405 l 1.87241,-5.8469 c -0.374051,2.30429 -0.259828,4.42308 1.050383,6.08745 -0.305657,-3.13239 0.534497,-4.60767 1.167481,-6.38258 -0.100936,2.23613 -0.04042,4.45912 1.395193,6.57015 -0.17508,-2.15323 0.32667,-4.30647 1.28574,-6.45971 -0.0994,3.36722 0.178,5.837 0.97718,7.06363 0.21368,-2.7443 1.09938,-4.99337 2.2874,-7.01965 -0.55238,2.84908 -0.11866,6.35401 1.05944,8.47777 0.29514,-3.4247 0.70132,-6.26477 1.42717,-7.42192 -0.004,4.70278 0.68094,6.43432 1.36647,8.16432 l 1.07661,-6.79699 c 0.0403,2.38003 0.21779,4.66719 1.33086,6.32181 0.3083,-1.34515 0.81832,-4.15457 1.64596,-5.63441 6.29485,9.39039 0.0183,16.44306 3.02495,23.20752 1.32308,-6.30531 1.38122,-10.70825 2.5869,-12.24495 0.84579,-1.07802 -0.62446,13.27774 -0.66152,16.28347 -0.04,3.24006 0.30507,3.96796 0.30507,3.96796 0,0 3.91982,-9.46498 4.63627,-16.13584 4.1489,-16.23416 -9.19659,-21.95477 -16.33001,-23.06844 -8.498836,-1.32682 -16.508556,1.498 -18.196977,11.09254 l 3.549355,-5.22175 c -0.898776,2.3153 -0.563513,4.25173 0.503181,5.96358 z"
       style="fill:#a05a2c;stroke:#000000;stroke-width:0.92839;stroke-linecap:round;stroke-linejoin:round;stroke-dasharray:none;stroke-opacity:1" />
  </g>
</svg>
